<svg width="32" height="32" viewBox="0 0 32 32" fill="none" xmlns="http://www.w3.org/2000/svg">
<rect width="32" height="32" rx="10" fill="#EF4444"/>
<g clip-path="url(#clip0_807_6738)">
<path d="M16.0001 24.3333C11.3976 24.3333 7.66675 20.6025 7.66675 16C7.66675 11.3975 11.3976 7.66663 16.0001 7.66663C20.6026 7.66663 24.3334 11.3975 24.3334 16C24.3334 20.6025 20.6026 24.3333 16.0001 24.3333ZM16.0001 14.8216L13.6434 12.4641L12.4642 13.6433L14.8217 16L12.4642 18.3566L13.6434 19.5358L16.0001 17.1783L18.3567 19.5358L19.5359 18.3566L17.1784 16L19.5359 13.6433L18.3567 12.4641L16.0001 14.8216Z" fill="#FDFDFD"/>
</g>
<defs>
<clipPath id="clip0_807_6738">
<rect width="20" height="20" fill="white" transform="translate(6 6)"/>
</clipPath>
</defs>
</svg>
