<svg width="40" height="40" viewBox="0 0 40 40" fill="none" xmlns="http://www.w3.org/2000/svg">
    <path d="M14.1667 23.75C14.1667 26.95 16.8 29.5833 20 29.5833C23.2 29.5833 25.8333 26.95 25.8333 23.75" stroke="#292D32" stroke-width="1.5" stroke-miterlimit="10" stroke-linecap="round" stroke-linejoin="round"/>
    <path d="M14.6833 3.33334L8.64999 9.38334" stroke="#292D32" stroke-width="1.5" stroke-miterlimit="10" stroke-linecap="round" stroke-linejoin="round"/>
    <path d="M25.3167 3.33334L31.35 9.38334" stroke="#292D32" stroke-width="1.5" stroke-miterlimit="10" stroke-linecap="round" stroke-linejoin="round"/>
    <path d="M3.33331 13.0833C3.33331 10 4.98331 9.75 7.03331 9.75H32.9666C35.0166 9.75 36.6666 10 36.6666 13.0833C36.6666 16.6667 35.0166 16.4167 32.9666 16.4167H7.03331C4.98331 16.4167 3.33331 16.6667 3.33331 13.0833Z" stroke="#292D32" stroke-width="1.5"/>
    <path d="M5.83331 16.6667L8.18331 31.0667C8.71665 34.3 9.99998 36.6667 14.7666 36.6667H24.8166C30 36.6667 30.7666 34.4 31.3666 31.2667L34.1666 16.6667" stroke="#292D32" stroke-width="1.5" stroke-linecap="round"/>
</svg>
