<svg width="40" height="40" viewBox="0 0 40 40" fill="none" xmlns="http://www.w3.org/2000/svg">
    <path d="M36.6667 17.5V25.8333C36.6667 31.6666 33.3333 34.1666 28.3333 34.1666H11.6667C6.66667 34.1666 3.33333 31.6666 3.33333 25.8333V14.1666C3.33333 8.33331 6.66667 5.83331 11.6667 5.83331H23.3333" stroke="#292D32" stroke-width="1.5" stroke-miterlimit="10" stroke-linecap="round" stroke-linejoin="round"/>
    <path d="M11.6667 15L16.8833 19.1667C18.6 20.5333 21.4167 20.5333 23.1333 19.1667L25.1 17.6" stroke="#292D32" stroke-width="1.5" stroke-miterlimit="10" stroke-linecap="round" stroke-linejoin="round"/>
    <path d="M32.5 13.3333C34.8012 13.3333 36.6667 11.4679 36.6667 9.16667C36.6667 6.86548 34.8012 5 32.5 5C30.1988 5 28.3333 6.86548 28.3333 9.16667C28.3333 11.4679 30.1988 13.3333 32.5 13.3333Z" stroke="#292D32" stroke-width="1.5" stroke-miterlimit="10" stroke-linecap="round" stroke-linejoin="round"/>
</svg>
