<svg width="40" height="40" viewBox="0 0 40 40" fill="none" xmlns="http://www.w3.org/2000/svg">
    <path d="M5.28336 12.4L20 20.9166L34.6166 12.4499" stroke="#292D32" stroke-width="1.5" stroke-linecap="round" stroke-linejoin="round"/>
    <path d="M20 36.0166V20.8999" stroke="#292D32" stroke-width="1.5" stroke-linecap="round" stroke-linejoin="round"/>
    <path d="M16.55 4.13331L7.64999 9.08337C5.63333 10.2 3.98336 13 3.98336 15.3V24.7167C3.98336 27.0167 5.63333 29.8167 7.64999 30.9333L16.55 35.8834C18.45 36.9334 21.5666 36.9334 23.4666 35.8834L32.3667 30.9333C34.3834 29.8167 36.0333 27.0167 36.0333 24.7167V15.3C36.0333 13 34.3834 10.2 32.3667 9.08337L23.4666 4.13331C21.55 3.06665 18.45 3.06665 16.55 4.13331Z" stroke="#292D32" stroke-width="1.5" stroke-linecap="round" stroke-linejoin="round"/>
    <path d="M28.3333 22.0667V15.9667L12.5167 6.83331" stroke="#292D32" stroke-width="1.5" stroke-linecap="round" stroke-linejoin="round"/>
</svg>
