<svg width="40" height="40" viewBox="0 0 40 40" fill="none" xmlns="http://www.w3.org/2000/svg">
    <path d="M33.2833 16.6667H6.61667V30C6.61667 35 8.28333 36.6667 13.2833 36.6667H26.6167C31.6167 36.6667 33.2833 35 33.2833 30V16.6667Z" stroke="#292D32" stroke-width="1.5" stroke-miterlimit="10" stroke-linecap="round" stroke-linejoin="round"/>
    <path d="M35.8333 11.6667V13.3333C35.8333 15.1667 34.95 16.6667 32.5 16.6667H7.5C4.95 16.6667 4.16667 15.1667 4.16667 13.3333V11.6667C4.16667 9.83334 4.95 8.33334 7.5 8.33334H32.5C34.95 8.33334 35.8333 9.83334 35.8333 11.6667Z" stroke="#292D32" stroke-width="1.5" stroke-miterlimit="10" stroke-linecap="round" stroke-linejoin="round"/>
    <path d="M19.4 8.33333H10.2C9.63333 7.71666 9.65 6.76666 10.25 6.16666L12.6167 3.79999C13.2333 3.18333 14.25 3.18333 14.8667 3.79999L19.4 8.33333Z" stroke="#292D32" stroke-width="1.5" stroke-miterlimit="10" stroke-linecap="round" stroke-linejoin="round"/>
    <path d="M29.7833 8.33333H20.5833L25.1167 3.79999C25.7333 3.18333 26.75 3.18333 27.3667 3.79999L29.7333 6.16666C30.3333 6.76666 30.35 7.71666 29.7833 8.33333Z" stroke="#292D32" stroke-width="1.5" stroke-miterlimit="10" stroke-linecap="round" stroke-linejoin="round"/>
    <path d="M14.9 16.6667V25.2333C14.9 26.5667 16.3667 27.35 17.4833 26.6333L19.05 25.6C19.6167 25.2333 20.3333 25.2333 20.8833 25.6L22.3667 26.6C23.4667 27.3333 24.95 26.55 24.95 25.2167V16.6667H14.9Z" stroke="#292D32" stroke-width="1.5" stroke-miterlimit="10" stroke-linecap="round" stroke-linejoin="round"/>
</svg>
