<svg width="32" height="32" viewBox="0 0 32 32" fill="none" xmlns="http://www.w3.org/2000/svg">
<rect width="32" height="32" rx="10" fill="#F59E0B"/>
<g clip-path="url(#clip0_807_6729)">
<path d="M16.7216 8.5L24.6599 22.25C24.7331 22.3767 24.7716 22.5204 24.7716 22.6667C24.7716 22.8129 24.7331 22.9566 24.6599 23.0833C24.5868 23.21 24.4816 23.3152 24.3549 23.3884C24.2282 23.4615 24.0845 23.5 23.9382 23.5H8.06158C7.9153 23.5 7.7716 23.4615 7.64492 23.3884C7.51824 23.3152 7.41305 23.21 7.33991 23.0833C7.26677 22.9566 7.22827 22.8129 7.22827 22.6667C7.22827 22.5204 7.26678 22.3767 7.33992 22.25L15.2782 8.5C15.3514 8.37333 15.4566 8.26814 15.5833 8.19501C15.7099 8.12188 15.8536 8.08337 15.9999 8.08337C16.1462 8.08337 16.2899 8.12188 16.4166 8.19501C16.5432 8.26814 16.6484 8.37333 16.7216 8.5ZM15.1666 19.3333V21H16.8332V19.3333H15.1666ZM15.1666 13.5V17.6667H16.8332V13.5H15.1666Z" fill="#FDFDFD"/>
</g>
<defs>
<clipPath id="clip0_807_6729">
<rect width="20" height="20" fill="white" transform="translate(6 6)"/>
</clipPath>
</defs>
</svg>
