<svg width="243" height="37" viewBox="0 0 243 37" fill="none" xmlns="http://www.w3.org/2000/svg">
    <path d="M20.848 18.48C20.656 18.576 20.656 18.672 20.848 18.768C23.888 20.336 25.408 22.944 25.408 26.592C25.408 29.696 24.352 32.048 22.24 33.648C20.128 35.216 17.36 36 13.936 36H1.504C1.344 36 1.2 35.952 1.072 35.856C0.976 35.728 0.928 35.584 0.928 35.424V2.976C0.928 2.816 0.976 2.688 1.072 2.592C1.2 2.464 1.344 2.4 1.504 2.4H13.552C21.136 2.4 24.928 5.472 24.928 11.616C24.928 14.816 23.568 17.104 20.848 18.48ZM7.936 8.208C7.776 8.208 7.696 8.288 7.696 8.448V15.936C7.696 16.096 7.776 16.176 7.936 16.176H13.552C15.056 16.176 16.224 15.824 17.056 15.12C17.888 14.416 18.304 13.456 18.304 12.24C18.304 10.992 17.888 10.016 17.056 9.312C16.224 8.576 15.056 8.208 13.552 8.208H7.936ZM13.936 30.144C15.408 30.144 16.56 29.776 17.392 29.04C18.224 28.272 18.64 27.232 18.64 25.92C18.64 24.608 18.224 23.584 17.392 22.848C16.56 22.08 15.392 21.696 13.888 21.696H7.936C7.776 21.696 7.696 21.776 7.696 21.936V29.904C7.696 30.064 7.776 30.144 7.936 30.144H13.936ZM30.8376 36C30.6776 36 30.5336 35.952 30.4056 35.856C30.3096 35.728 30.2616 35.584 30.2616 35.424V2.976C30.2616 2.816 30.3096 2.688 30.4056 2.592C30.5336 2.464 30.6776 2.4 30.8376 2.4H36.4536C36.6136 2.4 36.7416 2.464 36.8376 2.592C36.9656 2.688 37.0296 2.816 37.0296 2.976V35.424C37.0296 35.584 36.9656 35.728 36.8376 35.856C36.7416 35.952 36.6136 36 36.4536 36H30.8376ZM45.6284 8.544C44.5404 8.544 43.6284 8.192 42.8924 7.488C42.1884 6.752 41.8364 5.84 41.8364 4.752C41.8364 3.632 42.1884 2.72 42.8924 2.016C43.5964 1.312 44.5084 0.959999 45.6284 0.959999C46.7484 0.959999 47.6604 1.312 48.3644 2.016C49.0684 2.72 49.4204 3.632 49.4204 4.752C49.4204 5.84 49.0524 6.752 48.3164 7.488C47.6124 8.192 46.7164 8.544 45.6284 8.544ZM42.7484 36C42.5884 36 42.4444 35.952 42.3164 35.856C42.2204 35.728 42.1724 35.584 42.1724 35.424V11.856C42.1724 11.696 42.2204 11.568 42.3164 11.472C42.4444 11.344 42.5884 11.28 42.7484 11.28H48.3644C48.5244 11.28 48.6524 11.344 48.7484 11.472C48.8764 11.568 48.9404 11.696 48.9404 11.856V35.424C48.9404 35.584 48.8764 35.728 48.7484 35.856C48.6524 35.952 48.5244 36 48.3644 36H42.7484ZM64.0547 36.336C61.9108 36.336 60.0388 36.032 58.4388 35.424C56.8388 34.816 55.5908 33.968 54.6948 32.88C53.8308 31.792 53.3988 30.56 53.3988 29.184V28.704C53.3988 28.544 53.4468 28.416 53.5428 28.32C53.6708 28.192 53.8148 28.128 53.9748 28.128H59.3028C59.4628 28.128 59.5908 28.192 59.6868 28.32C59.8148 28.416 59.8788 28.544 59.8788 28.704V28.752C59.8788 29.456 60.2628 30.064 61.0308 30.576C61.8308 31.056 62.8228 31.296 64.0068 31.296C65.0948 31.296 65.9748 31.088 66.6468 30.672C67.3188 30.224 67.6548 29.68 67.6548 29.04C67.6548 28.464 67.3668 28.032 66.7908 27.744C66.2148 27.456 65.2708 27.152 63.9588 26.832C62.4548 26.448 61.2708 26.08 60.4068 25.728C58.3588 25.024 56.7268 24.16 55.5108 23.136C54.2948 22.112 53.6868 20.64 53.6868 18.72C53.6868 16.352 54.5988 14.48 56.4228 13.104C58.2788 11.696 60.7268 10.992 63.7668 10.992C65.8148 10.992 67.6068 11.328 69.1428 12C70.6788 12.64 71.8628 13.552 72.6948 14.736C73.5588 15.92 73.9908 17.264 73.9908 18.768C73.9908 18.928 73.9268 19.072 73.7988 19.2C73.7028 19.296 73.5748 19.344 73.4148 19.344H68.2788C68.1188 19.344 67.9748 19.296 67.8468 19.2C67.7508 19.072 67.7028 18.928 67.7028 18.768C67.7028 18.064 67.3348 17.472 66.5988 16.992C65.8948 16.512 64.9508 16.272 63.7668 16.272C62.7108 16.272 61.8468 16.464 61.1748 16.848C60.5028 17.232 60.1668 17.76 60.1668 18.432C60.1668 19.072 60.4868 19.552 61.1268 19.872C61.7988 20.192 62.9028 20.528 64.4388 20.88C64.7908 20.976 65.1908 21.088 65.6388 21.216C66.0868 21.312 66.5668 21.44 67.0788 21.6C69.3508 22.272 71.1428 23.136 72.4548 24.192C73.7668 25.248 74.4228 26.784 74.4228 28.8C74.4228 31.168 73.4788 33.024 71.5908 34.368C69.7348 35.68 67.2228 36.336 64.0547 36.336ZM87.8204 36.336C85.6764 36.336 83.8044 36.032 82.2044 35.424C80.6044 34.816 79.3564 33.968 78.4604 32.88C77.5964 31.792 77.1644 30.56 77.1644 29.184V28.704C77.1644 28.544 77.2124 28.416 77.3084 28.32C77.4364 28.192 77.5804 28.128 77.7404 28.128H83.0684C83.2284 28.128 83.3564 28.192 83.4524 28.32C83.5804 28.416 83.6444 28.544 83.6444 28.704V28.752C83.6444 29.456 84.0284 30.064 84.7964 30.576C85.5964 31.056 86.5884 31.296 87.7724 31.296C88.8604 31.296 89.7404 31.088 90.4124 30.672C91.0844 30.224 91.4204 29.68 91.4204 29.04C91.4204 28.464 91.1324 28.032 90.5564 27.744C89.9804 27.456 89.0364 27.152 87.7244 26.832C86.2204 26.448 85.0364 26.08 84.1724 25.728C82.1244 25.024 80.4924 24.16 79.2764 23.136C78.0604 22.112 77.4524 20.64 77.4524 18.72C77.4524 16.352 78.3644 14.48 80.1884 13.104C82.0444 11.696 84.4924 10.992 87.5324 10.992C89.5804 10.992 91.3724 11.328 92.9084 12C94.4444 12.64 95.6284 13.552 96.4604 14.736C97.3244 15.92 97.7564 17.264 97.7564 18.768C97.7564 18.928 97.6924 19.072 97.5644 19.2C97.4684 19.296 97.3404 19.344 97.1804 19.344H92.0444C91.8844 19.344 91.7404 19.296 91.6124 19.2C91.5164 19.072 91.4684 18.928 91.4684 18.768C91.4684 18.064 91.1004 17.472 90.3644 16.992C89.6604 16.512 88.7164 16.272 87.5324 16.272C86.4764 16.272 85.6124 16.464 84.9404 16.848C84.2684 17.232 83.9324 17.76 83.9324 18.432C83.9324 19.072 84.2524 19.552 84.8924 19.872C85.5644 20.192 86.6684 20.528 88.2044 20.88C88.5564 20.976 88.9564 21.088 89.4044 21.216C89.8524 21.312 90.3324 21.44 90.8444 21.6C93.1164 22.272 94.9084 23.136 96.2204 24.192C97.5324 25.248 98.1884 26.784 98.1884 28.8C98.1884 31.168 97.2444 33.024 95.3564 34.368C93.5004 35.68 90.9884 36.336 87.8204 36.336ZM116.091 11.28C116.251 11.28 116.379 11.344 116.475 11.472C116.603 11.568 116.667 11.696 116.667 11.856V16.416C116.667 16.576 116.603 16.72 116.475 16.848C116.379 16.944 116.251 16.992 116.091 16.992H111.435C111.275 16.992 111.195 17.072 111.195 17.232V35.424C111.195 35.584 111.131 35.728 111.003 35.856C110.907 35.952 110.779 36 110.619 36H105.003C104.843 36 104.699 35.952 104.571 35.856C104.475 35.728 104.427 35.584 104.427 35.424V17.232C104.427 17.072 104.347 16.992 104.187 16.992H101.355C101.195 16.992 101.051 16.944 100.923 16.848C100.827 16.72 100.779 16.576 100.779 16.416V11.856C100.779 11.696 100.827 11.568 100.923 11.472C101.051 11.344 101.195 11.28 101.355 11.28H104.187C104.347 11.28 104.427 11.2 104.427 11.04V9.984C104.427 8 104.731 6.464 105.339 5.376C105.947 4.256 106.923 3.472 108.267 3.024C109.643 2.544 111.531 2.336 113.931 2.4H115.755C115.915 2.4 116.043 2.464 116.139 2.592C116.267 2.688 116.331 2.816 116.331 2.976V6.864C116.331 7.024 116.267 7.168 116.139 7.296C116.043 7.392 115.915 7.44 115.755 7.44H114.171C113.051 7.472 112.267 7.712 111.819 8.16C111.403 8.576 111.195 9.36 111.195 10.512V11.04C111.195 11.2 111.275 11.28 111.435 11.28H116.091ZM134.99 11.904C134.99 11.744 135.038 11.616 135.134 11.52C135.262 11.392 135.406 11.328 135.566 11.328H141.182C141.342 11.328 141.47 11.392 141.566 11.52C141.694 11.616 141.758 11.744 141.758 11.904V35.424C141.758 35.584 141.694 35.728 141.566 35.856C141.47 35.952 141.342 36 141.182 36H135.566C135.406 36 135.262 35.952 135.134 35.856C135.038 35.728 134.99 35.584 134.99 35.424V33.792C134.99 33.696 134.958 33.648 134.894 33.648C134.83 33.616 134.766 33.648 134.702 33.744C133.422 35.472 131.438 36.336 128.75 36.336C126.318 36.336 124.318 35.6 122.75 34.128C121.182 32.656 120.398 30.592 120.398 27.936V11.904C120.398 11.744 120.446 11.616 120.542 11.52C120.67 11.392 120.814 11.328 120.974 11.328H126.542C126.702 11.328 126.83 11.392 126.926 11.52C127.054 11.616 127.118 11.744 127.118 11.904V26.256C127.118 27.536 127.454 28.576 128.126 29.376C128.83 30.176 129.79 30.576 131.006 30.576C132.094 30.576 132.99 30.256 133.694 29.616C134.398 28.944 134.83 28.08 134.99 27.024V11.904ZM147.322 36C147.162 36 147.018 35.952 146.89 35.856C146.794 35.728 146.746 35.584 146.746 35.424V2.976C146.746 2.816 146.794 2.688 146.89 2.592C147.018 2.464 147.162 2.4 147.322 2.4H152.938C153.098 2.4 153.226 2.464 153.322 2.592C153.45 2.688 153.514 2.816 153.514 2.976V35.424C153.514 35.584 153.45 35.728 153.322 35.856C153.226 35.952 153.098 36 152.938 36H147.322ZM188.426 18.48C188.234 18.576 188.234 18.672 188.426 18.768C191.466 20.336 192.986 22.944 192.986 26.592C192.986 29.696 191.93 32.048 189.818 33.648C187.706 35.216 184.938 36 181.514 36H169.082C168.922 36 168.778 35.952 168.65 35.856C168.554 35.728 168.506 35.584 168.506 35.424V2.976C168.506 2.816 168.554 2.688 168.65 2.592C168.778 2.464 168.922 2.4 169.082 2.4H181.13C188.714 2.4 192.506 5.472 192.506 11.616C192.506 14.816 191.146 17.104 188.426 18.48ZM175.514 8.208C175.354 8.208 175.274 8.288 175.274 8.448V15.936C175.274 16.096 175.354 16.176 175.514 16.176H181.13C182.634 16.176 183.802 15.824 184.634 15.12C185.466 14.416 185.882 13.456 185.882 12.24C185.882 10.992 185.466 10.016 184.634 9.312C183.802 8.576 182.634 8.208 181.13 8.208H175.514ZM181.514 30.144C182.986 30.144 184.138 29.776 184.97 29.04C185.802 28.272 186.218 27.232 186.218 25.92C186.218 24.608 185.802 23.584 184.97 22.848C184.138 22.08 182.97 21.696 181.466 21.696H175.514C175.354 21.696 175.274 21.776 175.274 21.936V29.904C175.274 30.064 175.354 30.144 175.514 30.144H181.514ZM219.68 21.12C219.872 22.336 219.936 23.696 219.872 25.2C219.84 25.584 219.632 25.776 219.248 25.776H204.416C204.224 25.776 204.16 25.856 204.224 26.016C204.32 26.656 204.496 27.296 204.752 27.936C205.584 29.728 207.28 30.624 209.84 30.624C211.888 30.592 213.504 29.76 214.688 28.128C214.816 27.936 214.96 27.84 215.12 27.84C215.216 27.84 215.328 27.904 215.456 28.032L218.912 31.44C219.072 31.6 219.152 31.744 219.152 31.872C219.152 31.936 219.088 32.064 218.96 32.256C217.904 33.568 216.544 34.592 214.88 35.328C213.216 36.032 211.392 36.384 209.408 36.384C206.656 36.384 204.32 35.76 202.4 34.512C200.512 33.264 199.152 31.52 198.32 29.28C197.648 27.68 197.312 25.584 197.312 22.992C197.312 21.232 197.552 19.68 198.032 18.336C198.768 16.064 200.048 14.256 201.872 12.912C203.728 11.568 205.92 10.896 208.448 10.896C211.648 10.896 214.208 11.824 216.128 13.68C218.08 15.536 219.264 18.016 219.68 21.12ZM208.496 16.752C206.48 16.752 205.152 17.696 204.512 19.584C204.384 20 204.272 20.512 204.176 21.12C204.176 21.28 204.256 21.36 204.416 21.36H212.72C212.912 21.36 212.976 21.28 212.912 21.12C212.752 20.192 212.672 19.744 212.672 19.776C212.384 18.816 211.872 18.08 211.136 17.568C210.432 17.024 209.552 16.752 208.496 16.752ZM224.619 36C224.459 36 224.315 35.952 224.187 35.856C224.091 35.728 224.043 35.584 224.043 35.424V2.976C224.043 2.816 224.091 2.688 224.187 2.592C224.315 2.464 224.459 2.4 224.619 2.4H230.235C230.395 2.4 230.523 2.464 230.619 2.592C230.747 2.688 230.811 2.816 230.811 2.976V35.424C230.811 35.584 230.747 35.728 230.619 35.856C230.523 35.952 230.395 36 230.235 36H224.619ZM236.338 36C236.178 36 236.034 35.952 235.906 35.856C235.81 35.728 235.762 35.584 235.762 35.424V2.976C235.762 2.816 235.81 2.688 235.906 2.592C236.034 2.464 236.178 2.4 236.338 2.4H241.954C242.114 2.4 242.242 2.464 242.338 2.592C242.466 2.688 242.53 2.816 242.53 2.976V35.424C242.53 35.584 242.466 35.728 242.338 35.856C242.242 35.952 242.114 36 241.954 36H236.338Z" fill="#EA452E"/>
</svg>
